<?xml version="1.0" standalone="no"?>
<!DOCTYPE svg PUBLIC "-//W3C//DTD SVG 20010904//EN"
 "http://www.w3.org/TR/2001/REC-SVG-20010904/DTD/svg10.dtd">
<svg version="1.0" xmlns="http://www.w3.org/2000/svg"
 width="381.000000pt" height="358.000000pt" viewBox="0 0 381.000000 358.000000"
 preserveAspectRatio="xMidYMid meet">
<metadata>
Created by potrace 1.15, written by Peter Selinger 2001-2017
</metadata>
<g transform="translate(0.000000,358.000000) scale(0.100000,-0.100000)"
fill="#000000" stroke="none">
<path d="M230 3420 l0 -110 408 -2 409 -3 -66 -141 c-79 -169 -161 -344 -356
-764 -81 -173 -175 -376 -210 -450 -35 -74 -107 -229 -160 -345 -54 -115 -122
-261 -151 -324 -30 -62 -54 -117 -54 -122 0 -5 698 -9 1613 -9 1753 0 1661 -3
1749 55 46 31 93 101 113 170 14 46 32 159 85 530 33 235 50 348 70 475 10 69
26 175 35 235 9 61 23 155 31 210 33 213 -5 311 -150 388 l-41 22 -1030 3
-1030 2 -48 -95 c-26 -52 -47 -104 -47 -115 0 -20 9 -20 1048 -20 1003 0 1050
-1 1065 -18 18 -20 20 -64 9 -142 l-7 -45 -1110 -5 -1110 -5 -28 -55 c-83
-165 -247 -513 -247 -526 0 -12 165 -14 1201 -14 l1202 0 -7 -37 c-3 -21 -13
-85 -21 -143 -75 -545 -85 -598 -124 -627 -12 -10 -331 -12 -1413 -13 -769 0
-1398 2 -1398 4 0 2 25 57 56 122 31 66 73 155 94 199 21 44 63 134 95 200 31
66 73 154 92 195 20 41 60 127 90 190 30 63 86 180 123 260 37 80 94 199 125
265 32 66 74 156 95 200 89 191 116 247 171 363 33 68 59 130 59 138 0 12 -93
14 -615 14 l-615 0 0 -110z"/>
<path d="M1627 2072 c-21 -23 -22 -76 -1 -96 13 -14 64 -16 399 -16 l384 0 15
22 c22 31 20 64 -4 88 -19 19 -33 20 -398 20 -354 0 -380 -1 -395 -18z"/>
<path d="M2577 2072 c-20 -22 -22 -83 -5 -100 8 -8 64 -12 185 -12 160 0 173
1 183 19 16 30 12 76 -8 94 -16 14 -44 17 -179 17 -142 0 -162 -2 -176 -18z"/>
<path d="M1432 1714 c-15 -10 -22 -25 -22 -49 0 -69 -47 -65 755 -65 706 0
725 0 735 19 18 34 12 78 -12 95 -20 14 -106 16 -728 16 -622 0 -708 -2 -728
-16z"/>
<path d="M62 628 l3 -73 136 -5 137 -5 -103 -145 c-57 -80 -122 -171 -144
-203 -35 -48 -41 -65 -41 -106 0 -30 5 -51 13 -53 6 -3 66 -4 132 -2 66 1 178
3 248 3 l128 1 -3 67 -3 68 -147 5 -147 5 146 205 c141 197 147 207 147 255
l1 50 -253 3 -253 2 3 -72z"/>
<path d="M1626 675 c-33 -30 -36 -85 -6 -115 21 -21 92 -28 118 -12 16 10 27
72 18 105 -12 48 -88 61 -130 22z"/>
<path d="M2397 693 c-4 -3 -7 -151 -7 -328 l0 -322 41 -7 c22 -4 56 -4 75 0
l34 6 0 88 0 88 31 6 c17 3 74 6 126 6 111 0 144 12 195 68 43 48 51 82 47
190 -4 71 -7 82 -38 120 -39 50 -66 65 -139 81 -57 12 -354 15 -365 4z m349
-159 c14 -10 32 -30 40 -45 13 -25 13 -33 0 -63 -21 -50 -59 -66 -161 -66
l-85 0 0 95 0 95 90 0 c67 0 97 -4 116 -16z"/>
<path d="M3560 365 l0 -335 48 0 c26 0 57 3 70 6 l22 6 -2 327 -3 326 -67 3
-68 3 0 -336z"/>
<path d="M741 500 c-61 -28 -98 -74 -112 -140 -14 -65 -5 -189 15 -228 48 -92
185 -136 293 -94 42 16 53 17 57 6 4 -10 24 -14 66 -14 l60 0 0 240 0 240 -64
0 c-39 0 -66 -4 -68 -11 -3 -8 -14 -7 -35 5 -46 23 -156 21 -212 -4z m183
-129 c44 -29 69 -87 55 -128 -32 -98 -158 -113 -204 -23 -23 44 -19 84 12 120
44 53 89 62 137 31z"/>
<path d="M1376 513 c-5 -5 -45 -8 -90 -8 l-81 0 -3 -232 -2 -233 69 0 69 0 4
141 3 141 33 29 c32 29 84 39 97 19 3 -5 19 -10 34 -10 21 0 31 8 44 35 27 56
22 92 -13 110 -30 16 -150 21 -164 8z"/>
<path d="M2030 508 c-19 -5 -41 -15 -48 -21 -11 -8 -16 -7 -23 6 -10 18 -62
23 -106 11 -23 -6 -23 -6 -23 -234 l0 -228 26 -6 c14 -4 46 -4 70 0 l44 6 0
134 0 133 31 36 c52 59 118 42 148 -38 6 -16 11 -82 11 -147 l0 -118 26 -6
c14 -4 45 -4 68 -1 l41 7 -3 171 c-4 154 -6 176 -25 207 -28 46 -53 66 -106
85 -50 17 -80 18 -131 3z"/>
<path d="M3081 497 c-84 -43 -120 -111 -121 -232 -1 -155 81 -238 235 -239 48
0 80 5 102 17 17 9 33 13 35 8 2 -5 32 -11 68 -13 l65 -3 0 235 0 235 -64 3
c-41 2 -67 -1 -71 -8 -5 -9 -16 -8 -38 4 -48 25 -156 21 -211 -7z m184 -127
c47 -29 70 -81 55 -125 -35 -107 -176 -113 -210 -9 -14 42 -8 71 21 108 38 49
83 57 134 26z"/>
<path d="M1617 503 c-12 -11 -8 -461 4 -468 5 -4 37 -4 70 0 l59 7 0 234 0
234 -63 0 c-35 0 -67 -3 -70 -7z"/>
</g>
</svg>
